<svg xmlns="http://www.w3.org/2000/svg" viewBox="0 0 606.2 252.72"><defs><style>.cls-1{fill:#4c4b4b;}.cls-2{fill:#636363;}.cls-3{fill:#605b5b;}.cls-4{fill:#6d6666;stroke:#000;stroke-miterlimit:10;stroke-width:2px;}.cls-5{fill:#353535;}.cls-6{fill:#fff;}</style></defs><g id="Layer_2" data-name="Layer 2"><g id="Layer_1-2" data-name="Layer 1"><path class="cls-1" d="M0,246.6,146,0l132,252.72L139,180S104.93,253.59,0,246.6Z"/><path class="cls-2" d="M146.91,0S186,167.41,3.5,241.4Z"/><path class="cls-3" d="M146.91,0s5.54,74.74-7.87,108l139,144.75Z"/><line class="cls-4" x1="300.24" y1="29.22" x2="300.24" y2="219.85"/><path class="cls-5" d="M450.13,182.09v15.52H401.54V132.46h48.59V148H420.72v11.21H445v14.49H420.72v8.41Z"/><path class="cls-5" d="M495.91,182.44a22.15,22.15,0,0,0,17.43-8L527.44,186q-12.39,12.72-32,12.72-16.11,0-27.4-9.66-11.13-9.75-11.13-24.1t11.33-24q11.39-9.53,27.65-9.53,17.77,0,30,11.13l-14,11.29q-6-6.17-15.67-6.16-8.76,0-14.35,5.3a15.88,15.88,0,0,0-5.54,12,16.47,16.47,0,0,0,5.54,12.29A19.93,19.93,0,0,0,495.91,182.44Z"/><path class="cls-5" d="M554.23,197.61H535V132.46h19.19v26.73H587V132.46H606.2v65.15H587V175.45H554.23Z"/><path class="cls-5" d="M382.17,95.36q0,9-5.47,13.68t-15.43,4.71H336.42V53.48h23.13q8.9,0,14.12,3.89a12.86,12.86,0,0,1,5.23,10.95,14.31,14.31,0,0,1-2.12,7.58,12.68,12.68,0,0,1-5.38,5,14.09,14.09,0,0,1,10.77,14.44ZM356.44,65.21h-4.83v11.6h4.19q7.81,0,7.82-6.18Q363.62,65.2,356.44,65.21Zm1.16,23.37h-6V102h5.75a12,12,0,0,0,6.88-1.75,5.66,5.66,0,0,0,2.57-5q0-3.59-2.21-5.15T357.6,88.58Z"/><path class="cls-5" d="M413.12,52.48h.8l31.79,60.63-.48.64H429.67l-3.67-8H400.75l-3.75,8H381.81l-.48-.64Zm.4,25.89-6.54,14H419.9Z"/><path class="cls-5" d="M474,113.75H458.83V90.69L436.37,54.2l.56-.72h16.19l13.65,23.33,13.4-23.33H496l.48.72L474,90.69Z"/><path class="cls-5" d="M491.74,136.46l-.54-.4.09-.2h1.07l-.15.6Z"/><path class="cls-5" d="M523.15,80.13l8.41-7.91c.05.53.1.8.1,1.07q0,16.54,0,33.11c0,1.13,0,1.13,1.1,1.13,4.72,0,9.44,0,14.16,0,.68,0,.88-.2.84-.85s0-1.62,0-2.43a1,1,0,0,0-.56-1c-.65-.35-1.26-.75-2-1.22l8.11-8.12.24.11v1c0,3.93,0,7.85,0,11.77,0,.57.14.78.75.78,5.72,0,11.44,0,17.16-.06,1.74,0,1.74,0,1.82-1.71a.22.22,0,0,1,0-.08c.2-1.7.08-3.23-1.86-3.94-.13,0-.21-.21-.16-.16l7.35-7.67.22.09v13.52h3.49l15.26,0h.08c1.79,0,1.78,0,1.75-1.76s-.06-3.45,0-5.17a1.47,1.47,0,0,0-.79-1.48,12.91,12.91,0,0,1-1.4-1.06l7.75-7.67.21.08c0,.32.09.64.09,1q0,10.39,0,20.79a5.46,5.46,0,0,0,0,.7c.08.55-.21.68-.69.68-3-.05-5.9-.11-8.85-.11-6.36,0-12.71,0-19.07,0H529.44l-41.76,0h-1.09a3.7,3.7,0,0,0,.61-.72c.14-.32.95-.4.39-1,.14-.1.27-.22.42-.31a6.14,6.14,0,0,0,1.23-.7c2.06-2,4.09-4.06,6.13-6.1.13-.13.28-.24.54-.45a9,9,0,0,1,.89,1.36c.66,1.67,1.85,2,3.61,2,8.15-.1,16.3,0,24.45,0h1.24v-.88c0-7.9,0-15.79,0-23.69a1.36,1.36,0,0,0-.74-1.39C524.66,81.16,524,80.69,523.15,80.13Z"/><path class="cls-5" d="M505,103.07c-.83-3.76,1.07-5.8,4.17-7.29a6.49,6.49,0,0,1-3.2-2.22,4.42,4.42,0,0,1,1.75-7,10.08,10.08,0,0,1,2.16-.43,18,18,0,0,0,1.77-.39,2.18,2.18,0,0,0,1.78-2,2.08,2.08,0,0,1,.19-.6c1.16,1,1,2.93-.41,4.9.93.9.73,1.93.3,3.12l-.77-.55a2.31,2.31,0,0,0-2.06-.5,1.63,1.63,0,0,0-1,2.66,4.66,4.66,0,0,0,4.39,2.55c1.23-.07,2.48,0,3.71,0,.52,0,.71.17.68.68a20.18,20.18,0,0,0,0,2.2c0,.58-.18.77-.77.77-2.19,0-4.38,0-6.57,0a6.17,6.17,0,0,0-4.27,1.55,13.14,13.14,0,0,0-1.42,1.87C505.31,102.55,505.2,102.74,505,103.07Z"/><path class="cls-5" d="M552.49,85.61c-1.24-1.28-2.4-2.45-3.53-3.66-.42-.45-.72-.46-1.14,0-1,1.06-2,2.06-3,3.12-.39.41-.67.46-1.08,0-1-1.06-2-2.09-3-3.11-.42-.41-.49-.72,0-1.16q1.54-1.47,3-3c.42-.45.7-.48,1.14,0,1,1,2,2,3,3,.44.46.66.36,1.06,0,1.22-1.19,2.49-2.32,3.82-3.55.43.45,1,1,1.57,1.65s1.26,1.33,1.85,2c.14.18.24.64.12.76C555.09,82.93,553.86,84.18,552.49,85.61Z"/><path class="cls-5" d="M598.66,127.34c-.16-.13-.31-.24-.44-.36-1.18-1.16-2.34-2.32-3.53-3.46a.51.51,0,0,1,0-.86l3.61-3.61c.33-.33.59-.28.93,0,1.22,1.21,2.49,2.37,3.71,3.59a.73.73,0,0,1,0,.7c-.83.86-1.71,1.68-2.58,2.52-.39.38-.78.76-1.19,1.13A3.46,3.46,0,0,1,598.66,127.34Z"/><path class="cls-5" d="M577.42,119.15a2.12,2.12,0,0,1,.35.24c1.14,1.15,2.3,2.29,3.41,3.48a.7.7,0,0,1,0,.7c-1.09,1.21-2.22,2.37-3.34,3.55-.31.33-.55.26-.85-.05-1.08-1.1-2.16-2.2-3.27-3.28a.62.62,0,0,1,0-1.05l3.17-3.16A6.53,6.53,0,0,1,577.42,119.15Z"/><path class="cls-5" d="M569.07,127.53l-2.25-2.4c-.45-.47-.91-.93-1.38-1.39a.55.55,0,0,1,0-.92q1.67-1.66,3.3-3.36c.29-.29.51-.27.79,0,1.15,1.14,2.32,2.27,3.45,3.43a.65.65,0,0,1,.06.63C571.78,124.84,570.49,126.1,569.07,127.53Z"/><path class="cls-5" d="M337.44,150l24.88.45-.79,45.71,18.44.58v-3.12c0-10.37-.26-20.74.12-31.1.18-5-.95-8.71-4.91-11.92-3.55-2.88-6.59-6.39-9.8-9.67C363,138.47,360.74,136,358,133L350,141.66l-.37-3.72h-6.46S343.78,146.37,337.44,150Zm58.07-.56V132.28c-14.07,0-21.84-.66-36.1-.66a7,7,0,0,0,.62,1c6.8,6.82,10,10,16.81,16.81"/><path class="cls-5" d="M356.14,131.62h-18.7v16.15s4.2-.71,4.2-10.56l9.84-.16Z"/><path class="cls-6" d="M370.47,178.47h-4.82v-4.81h4.82Z"/><path class="cls-6" d="M371.53,173.64h4.75v4.85h-4.75Z"/><path class="cls-6" d="M376.3,172.5h-4.79v-4.75h4.79Z"/><path class="cls-6" d="M370.45,172.5h-4.79v-4.75h4.79Z"/></g></g></svg>